<?xml version="1.0" standalone="no"?>
<!DOCTYPE svg PUBLIC "-//W3C//DTD SVG 20010904//EN"
 "http://www.w3.org/TR/2001/REC-SVG-20010904/DTD/svg10.dtd">
<svg version="1.0" xmlns="http://www.w3.org/2000/svg"
 width="48.000000pt" height="48.000000pt" viewBox="0 0 48.000000 48.000000"
 preserveAspectRatio="xMidYMid meet">

<g transform="translate(0.000000,48.000000) scale(0.100000,-0.100000)"
fill="#000000" stroke="none">
<path d="M191 428 c-61 -13 -125 -79 -139 -142 -15 -72 2 -130 53 -181 137
-137 364 -12 323 178 -22 104 -127 168 -237 145z m157 -123 c2 -55 0 -65 -14
-65 -14 0 -16 8 -11 56 6 55 5 56 -13 39 -11 -10 -17 -22 -14 -27 4 -6 -3 -23
-15 -39 l-22 -30 25 -30 c32 -38 32 -44 1 -74 -43 -44 -125 -29 -125 23 0 34
16 52 47 52 14 0 23 6 23 15 0 8 -9 15 -20 15 -12 0 -25 10 -32 25 -8 17 -19
25 -37 25 -25 1 -24 3 19 40 43 38 48 40 115 40 l70 0 3 -65z"/>
<path d="M211 322 c-11 -22 4 -62 23 -62 21 0 29 17 22 44 -7 30 -33 40 -45
18z"/>
<path d="M200 185 c-27 -32 13 -66 56 -47 29 14 31 37 5 52 -27 14 -46 13 -61
-5z"/>
</g>
</svg>
